<svg width="478" height="428" viewBox="0 0 478 428" fill="none" xmlns="http://www.w3.org/2000/svg">
<g clip-path="url(#clip0_3_84)">
<path d="M175.58 352.141C210.592 352.141 238.975 323.784 238.975 288.804C238.975 253.823 210.592 225.466 175.58 225.466C140.568 225.466 112.185 253.823 112.185 288.804C112.185 323.784 140.568 352.141 175.58 352.141Z" fill="#FFCD52"/>
<path d="M173.868 138.126C171.855 138.611 169.812 138.965 167.752 139.186C165.75 139.426 163.658 139.596 161.616 139.686C159.574 139.776 157.512 139.806 155.449 139.756C153.382 139.719 151.319 139.552 149.273 139.256C151.283 138.771 153.323 138.416 155.379 138.196C157.421 137.956 159.47 137.789 161.526 137.696C163.528 137.596 165.62 137.586 167.682 137.636C169.752 137.666 171.819 137.83 173.868 138.126V138.126Z" fill="#F46534"/>
<path d="M162.166 150.978C161.689 148.965 161.338 146.924 161.115 144.867C160.875 142.867 160.695 140.786 160.605 138.736C160.515 136.686 160.495 134.636 160.545 132.586C160.577 130.517 160.745 128.452 161.045 126.405C161.53 128.417 161.885 130.458 162.106 132.516C162.346 134.556 162.513 136.599 162.607 138.646C162.7 140.693 162.72 142.743 162.667 144.797C162.634 146.866 162.467 148.93 162.166 150.978ZM136.82 143.057C137.315 144.791 137.68 146.559 137.911 148.347C138.162 150.118 138.352 151.888 138.452 153.668C138.552 155.448 138.592 157.228 138.552 159.019C138.533 160.821 138.379 162.62 138.092 164.399C137.598 162.664 137.23 160.896 136.99 159.109C136.74 157.338 136.56 155.568 136.46 153.788C136.36 152.008 136.32 150.228 136.36 148.437C136.379 146.635 136.533 144.836 136.82 143.057Z" fill="#F46534"/>
<path d="M148.152 153.088C146.415 153.58 144.646 153.947 142.857 154.188C141.085 154.438 139.303 154.618 137.521 154.728C135.739 154.838 133.957 154.868 132.166 154.828C130.361 154.808 128.561 154.654 126.78 154.368C128.515 153.87 130.285 153.503 132.075 153.268C133.847 153.018 135.629 152.828 137.401 152.728C139.173 152.628 140.975 152.598 142.766 152.638C144.57 152.659 146.37 152.81 148.152 153.088V153.088ZM446.788 221.896C444.778 222.381 442.738 222.735 440.682 222.956C438.64 223.196 436.591 223.366 434.535 223.466C432.48 223.566 430.428 223.586 428.379 223.526C426.309 223.488 424.243 223.321 422.193 223.026C424.207 222.541 426.25 222.187 428.309 221.966C430.311 221.726 432.403 221.556 434.445 221.466C436.487 221.376 438.55 221.356 440.612 221.406C442.679 221.44 444.742 221.604 446.788 221.896Z" fill="#F46534"/>
<path d="M435.056 234.747C434.57 232.736 434.215 230.694 433.995 228.637C433.755 226.596 433.588 224.553 433.494 222.506C433.394 220.506 433.384 218.406 433.434 216.355C433.463 214.286 433.63 212.221 433.935 210.175C434.42 212.186 434.775 214.228 434.996 216.285C435.236 218.325 435.403 220.369 435.496 222.416C435.59 224.463 435.61 226.513 435.557 228.567C435.519 230.635 435.352 232.7 435.056 234.747V234.747ZM409.74 226.826C410.238 228.56 410.606 230.329 410.841 232.117C411.091 233.887 411.282 235.658 411.382 237.438C411.482 239.218 411.522 240.998 411.482 242.788C411.462 244.594 411.308 246.396 411.021 248.179C410.524 246.445 410.156 244.677 409.92 242.888C409.67 241.108 409.49 239.338 409.38 237.558C409.27 235.778 409.249 233.997 409.29 232.207C409.311 230.405 409.461 228.607 409.74 226.826V226.826Z" fill="#F46534"/>
<path d="M421.072 236.858C419.336 237.354 417.566 237.722 415.776 237.958C414.004 238.208 412.223 238.388 410.441 238.498C408.659 238.608 406.877 238.638 405.085 238.598C403.281 238.578 401.481 238.425 399.7 238.138C401.435 237.64 403.205 237.272 404.995 237.038C406.767 236.788 408.539 236.598 410.321 236.498C412.102 236.398 413.894 236.368 415.676 236.408C417.483 236.429 419.286 236.58 421.072 236.858V236.858ZM143.888 401.367C141.874 401.852 139.831 402.206 137.771 402.427C135.729 402.667 133.684 402.834 131.635 402.927C129.583 403.027 127.531 403.037 125.479 402.987C123.408 402.954 121.341 402.787 119.292 402.487C121.306 402.002 123.349 401.648 125.409 401.427C127.451 401.187 129.496 401.02 131.545 400.927C133.594 400.834 135.646 400.814 137.701 400.867C139.772 400.905 141.838 401.072 143.888 401.367V401.367Z" fill="#F46534"/>
<path d="M132.136 414.208C131.649 412.2 131.295 410.162 131.074 408.108C130.834 406.107 130.664 404.017 130.574 401.977C130.484 399.937 130.454 397.877 130.504 395.816C130.542 393.751 130.709 391.69 131.004 389.646C131.491 391.654 131.845 393.692 132.065 395.746C132.306 397.746 132.486 399.837 132.566 401.877C132.646 403.917 132.686 405.977 132.626 408.038C132.597 410.103 132.433 412.164 132.136 414.208ZM106.84 406.288C107.333 408.022 107.701 409.791 107.941 411.578C108.191 413.348 108.371 415.129 108.481 416.899C108.591 418.669 108.621 420.469 108.581 422.259C108.561 424.062 108.407 425.86 108.121 427.64C107.618 425.907 107.25 424.139 107.02 422.349C106.77 420.579 106.579 418.799 106.479 417.019C106.379 415.239 106.339 413.458 106.379 411.668C106.399 409.866 106.553 408.067 106.84 406.288V406.288Z" fill="#F46534"/>
<path d="M118.121 416.329C116.386 416.823 114.616 417.187 112.826 417.419C111.054 417.669 109.282 417.859 107.5 417.959C105.718 418.059 103.937 418.099 102.145 418.059C100.337 418.039 98.5339 417.885 96.7493 417.599C98.486 417.107 100.256 416.739 102.045 416.499C103.827 416.249 105.598 416.069 107.38 415.969C109.162 415.869 110.944 415.829 112.736 415.869C114.54 415.888 116.34 416.042 118.121 416.329Z" fill="#F46534"/>
<path d="M147.922 282.293C147.922 286.994 143.107 290.814 138.392 290.814C136.13 290.814 133.961 289.916 132.361 288.318C130.762 286.72 129.863 284.553 129.863 282.293C129.863 277.582 134.678 273.772 139.393 273.772C140.513 273.771 141.623 273.99 142.658 274.418C143.694 274.846 144.634 275.473 145.427 276.265C146.219 277.056 146.847 277.996 147.275 279.031C147.703 280.065 147.923 281.174 147.922 282.293V282.293ZM170.865 251.749C170.865 255.09 172.156 259.81 168.803 259.81C165.45 259.81 158.733 255.09 158.733 251.749C158.733 250.142 159.372 248.6 160.509 247.464C161.647 246.327 163.19 245.689 164.799 245.689C166.408 245.689 167.951 246.327 169.088 247.464C170.226 248.6 170.865 250.142 170.865 251.749ZM200.536 256.61C200.536 260.52 195.36 261.691 191.446 261.691C187.532 261.691 186.361 260.52 186.361 256.61C186.361 254.732 187.108 252.931 188.437 251.603C189.766 250.275 191.569 249.529 193.448 249.529C195.328 249.529 197.131 250.275 198.46 251.603C199.789 252.931 200.536 254.732 200.536 256.61ZM188.673 294.214C188.673 300.805 180.325 306.146 173.738 306.146C172.17 306.146 170.617 305.837 169.168 305.238C167.719 304.638 166.403 303.759 165.294 302.651C164.185 301.543 163.305 300.228 162.705 298.78C162.105 297.333 161.796 295.781 161.796 294.214C161.796 287.634 173.147 284.293 179.744 284.293C186.341 284.293 188.673 287.684 188.673 294.214ZM141.395 250.489C146.971 250.489 149.483 242.968 149.483 237.408C149.487 235.433 148.905 233.502 147.811 231.857C141.737 234.825 136.175 238.741 131.335 243.458C133.136 245.899 138.142 250.489 141.395 250.489ZM177.232 324.178C177.232 328.678 177.582 331.339 173.067 331.339C171.995 331.339 170.933 331.128 169.941 330.718C168.95 330.307 168.05 329.706 167.291 328.948C166.533 328.191 165.931 327.291 165.521 326.301C165.11 325.311 164.899 324.25 164.899 323.178C164.899 318.667 164.549 316.017 169.063 316.017C170.136 316.017 171.198 316.228 172.189 316.638C173.18 317.048 174.081 317.649 174.839 318.407C175.598 319.165 176.199 320.065 176.61 321.055C177.02 322.045 177.232 323.106 177.232 324.178V324.178ZM227.683 312.537C227.683 318.967 218.464 329.178 212.027 329.178C208.937 329.178 205.973 327.952 203.788 325.769C201.603 323.586 200.375 320.625 200.375 317.537C200.375 311.106 209.595 300.895 216.031 300.895C219.122 300.895 222.085 302.122 224.271 304.305C226.456 306.488 227.683 309.449 227.683 312.537V312.537ZM213.028 283.133C213.028 285.513 208.093 287.454 205.701 287.454C203.308 287.454 204.379 285.513 204.379 283.133C204.379 281.987 204.835 280.888 205.646 280.078C206.457 279.268 207.557 278.813 208.704 278.813C209.851 278.813 210.951 279.268 211.762 280.078C212.573 280.888 213.028 281.987 213.028 283.133V283.133ZM228.855 254.5C223.972 246.94 217.537 240.504 209.975 235.618C209.164 237.408 211.707 244.389 211.707 246.489C211.707 254.37 215.1 255.77 222.999 255.77C225.019 255.77 227.016 255.337 228.855 254.5V254.5ZM129.262 324.578C127.19 324.578 123.256 320.978 121.384 321.698C126.565 330.222 133.677 337.412 142.146 342.69C142.921 340.784 143.319 338.746 143.317 336.689C143.357 327.778 138.142 324.578 129.262 324.578ZM205.1 344.86C203.719 343.64 199.274 342.65 197.292 342.65C193.238 342.65 192.547 345.99 192.167 349.941C196.652 348.729 200.99 347.025 205.1 344.86Z" fill="#D86C1D"/>
<path d="M467.479 90.3906C449.641 111.173 431.612 131.775 413.644 152.398C395.676 173.02 377.607 193.613 359.539 214.195L305.183 275.772L250.627 337.179L249.346 331.839C249.755 331.993 250.13 332.227 250.448 332.526C250.767 332.826 251.022 333.185 251.201 333.584C251.38 333.983 251.478 334.413 251.489 334.85C251.501 335.287 251.425 335.722 251.268 336.129C251.166 336.408 251.024 336.671 250.847 336.909C237.29 355.619 217.11 368.468 194.409 372.844C188.793 373.864 183.1 374.4 177.392 374.444C157.212 374.389 137.629 367.603 121.749 355.163C105.868 342.723 94.6001 325.342 89.732 305.776C88.3682 300.234 87.5435 294.574 87.2695 288.874C87.1994 287.454 87.1994 286.023 87.1594 284.603C87.1348 283.124 87.195 281.645 87.3396 280.173C87.6144 277.315 88.0758 274.479 88.721 271.682C91.3889 260.694 95.591 250.136 101.204 240.318C106.774 230.528 113.64 221.533 121.615 213.575L145.149 190.412C160.792 174.984 176.474 159.595 192.197 144.247C207.883 128.845 223.699 113.573 239.476 98.2415L263.14 75.2888L286.914 52.4362L264.031 76.1689L241.007 99.8217C225.671 115.574 210.386 131.365 194.96 147.037C179.534 162.709 164.188 178.441 148.743 194.043L125.619 217.515C118.14 225.23 111.694 233.879 106.439 243.248C101.24 252.608 97.3817 262.651 94.9774 273.082C94.3941 275.622 93.9827 278.198 93.7461 280.793C93.6341 282.056 93.5973 283.325 93.636 284.593C93.636 285.913 93.6961 287.234 93.7662 288.594C94.5935 303.17 99.219 317.277 107.184 329.517C115.149 341.756 126.177 351.704 139.176 358.375C152.174 365.045 166.691 368.206 181.289 367.544C195.887 366.882 210.058 362.42 222.398 354.601C231.351 348.928 239.161 341.627 245.422 333.079L246.923 338.16C246.101 337.838 245.439 337.204 245.084 336.395C244.73 335.587 244.711 334.671 245.031 333.849C245.186 333.484 245.399 333.146 245.662 332.849L300.778 271.952L356.095 211.225C374.594 191.042 393.043 170.82 411.662 150.738C430.281 130.655 448.73 110.373 467.479 90.3906Z" fill="#FDA01F"/>
<path d="M184.839 198.983L270.367 115.894L189.865 203.904C189.554 204.243 189.179 204.518 188.762 204.713C188.344 204.908 187.893 205.019 187.433 205.039C186.973 205.06 186.513 204.989 186.08 204.832C185.647 204.675 185.249 204.434 184.91 204.124C184.57 203.813 184.294 203.439 184.1 203.022C183.905 202.605 183.794 202.154 183.773 201.694C183.753 201.234 183.823 200.775 183.98 200.343C184.138 199.91 184.378 199.513 184.689 199.173L184.839 198.983ZM240.857 213.815L334.563 115.434L246.052 218.506C245.755 218.862 245.39 219.156 244.977 219.37C244.565 219.584 244.115 219.714 243.652 219.752C243.189 219.791 242.724 219.737 242.282 219.594C241.84 219.451 241.431 219.222 241.079 218.919C240.727 218.617 240.438 218.248 240.23 217.833C240.022 217.418 239.898 216.967 239.866 216.504C239.834 216.041 239.895 215.576 240.044 215.137C240.194 214.698 240.429 214.293 240.737 213.945L240.857 213.815ZM1.00105 267.871L94.7071 169.49L6.16634 272.562C5.56103 273.267 4.69997 273.704 3.77259 273.775C2.84521 273.846 1.92747 273.547 1.22127 272.942C0.515073 272.337 0.078257 271.477 0.00692002 270.55C-0.064417 269.624 0.235568 268.707 0.840882 268.001L1.00105 267.871ZM308.897 97.6614L356.295 50.4859L314.102 102.352C313.812 102.709 313.453 103.006 313.048 103.225C312.643 103.444 312.198 103.581 311.74 103.628C311.282 103.676 310.819 103.632 310.377 103.501C309.936 103.369 309.525 103.152 309.167 102.862C308.809 102.572 308.513 102.214 308.293 101.809C308.074 101.404 307.937 100.96 307.89 100.502C307.842 100.045 307.886 99.5818 308.017 99.1407C308.149 98.6996 308.366 98.2887 308.656 97.9315C308.729 97.8347 308.809 97.7444 308.897 97.6614V97.6614ZM258.145 259.91L305.543 212.735L263.35 264.611C262.763 265.332 261.914 265.791 260.988 265.887C260.063 265.983 259.137 265.707 258.415 265.121C257.693 264.535 257.233 263.686 257.138 262.761C257.042 261.837 257.318 260.912 257.904 260.19C257.979 260.093 258.059 259.999 258.145 259.91ZM213.979 69.0481L261.368 21.8726L219.225 73.7386C218.934 74.0959 218.576 74.3924 218.171 74.6114C217.766 74.8304 217.321 74.9674 216.863 75.0148C216.405 75.0622 215.942 75.0189 215.5 74.8874C215.059 74.756 214.647 74.5389 214.29 74.2487C213.932 73.9584 213.635 73.6006 213.416 73.1958C213.197 72.7909 213.06 72.3469 213.012 71.889C212.965 71.4312 213.008 70.9685 213.14 70.5274C213.271 70.0863 213.489 69.6753 213.779 69.3181C213.841 69.2247 213.908 69.1345 213.979 69.0481ZM276.223 396.696L357.597 314.357L281.358 401.467C281.055 401.813 280.687 402.096 280.275 402.3C279.862 402.504 279.414 402.625 278.954 402.655C278.495 402.686 278.034 402.626 277.598 402.479C277.162 402.331 276.76 402.1 276.413 401.797C276.067 401.494 275.784 401.126 275.58 400.714C275.376 400.302 275.255 399.854 275.224 399.395C275.193 398.936 275.253 398.476 275.401 398.04C275.548 397.605 275.78 397.202 276.083 396.856L276.223 396.696ZM315.584 185.452L453.375 36.7643L320.809 190.112C320.512 190.472 320.146 190.769 319.733 190.986C319.32 191.203 318.867 191.335 318.402 191.375C317.937 191.414 317.469 191.361 317.025 191.217C316.581 191.073 316.17 190.842 315.816 190.538C315.463 190.233 315.174 189.861 314.966 189.444C314.759 189.026 314.637 188.571 314.608 188.106C314.578 187.64 314.643 187.174 314.797 186.733C314.95 186.293 315.191 185.888 315.503 185.542C315.525 185.507 315.552 185.477 315.584 185.452Z" fill="#FDA01F"/>
<path d="M276.213 82.4696C277.805 82.4696 279.096 81.1801 279.096 79.5893C279.096 77.9985 277.805 76.709 276.213 76.709C274.621 76.709 273.33 77.9985 273.33 79.5893C273.33 81.1801 274.621 82.4696 276.213 82.4696Z" stroke="#D86C1D" stroke-linecap="round" stroke-linejoin="round"/>
<path d="M84.7168 152.218C86.309 152.218 87.5998 150.928 87.5998 149.337C87.5998 147.747 86.309 146.457 84.7168 146.457C83.1246 146.457 81.8339 147.747 81.8339 149.337C81.8339 150.928 83.1246 152.218 84.7168 152.218Z" stroke="#D86C1D" stroke-linecap="round" stroke-linejoin="round"/>
<path d="M226.232 196.653C227.686 196.653 228.865 195.475 228.865 194.023C228.865 192.57 227.686 191.392 226.232 191.392C224.778 191.392 223.599 192.57 223.599 194.023C223.599 195.475 224.778 196.653 226.232 196.653Z" fill="#D86C1D"/>
<path d="M175.58 77.9391C177.034 77.9391 178.213 76.7614 178.213 75.3088C178.213 73.8561 177.034 72.6785 175.58 72.6785C174.126 72.6785 172.947 73.8561 172.947 75.3088C172.947 76.7614 174.126 77.9391 175.58 77.9391Z" fill="#D86C1D"/>
<path d="M475.117 41.4648C476.709 41.4648 478 40.1753 478 38.5845C478 36.9937 476.709 35.7042 475.117 35.7042C473.525 35.7042 472.234 36.9937 472.234 38.5845C472.234 40.1753 473.525 41.4648 475.117 41.4648Z" fill="#D86C1D"/>
<path d="M378.979 279.953C380.571 279.953 381.862 278.663 381.862 277.072C381.862 275.482 380.571 274.192 378.979 274.192C377.386 274.192 376.096 275.482 376.096 277.072C376.096 278.663 377.386 279.953 378.979 279.953Z" fill="#D86C1D"/>
<path d="M364.834 172.51C366.426 172.51 367.717 171.221 367.717 169.63C367.717 168.039 366.426 166.75 364.834 166.75C363.242 166.75 361.951 168.039 361.951 169.63C361.951 171.221 363.242 172.51 364.834 172.51Z" stroke="#D86C1D" stroke-linecap="round" stroke-linejoin="round"/>
<path d="M237.033 376.684C238.625 376.684 239.916 375.394 239.916 373.804C239.916 372.213 238.625 370.923 237.033 370.923C235.441 370.923 234.15 372.213 234.15 373.804C234.15 375.394 235.441 376.684 237.033 376.684Z" stroke="#D86C1D" stroke-linecap="round" stroke-linejoin="round"/>
<path d="M399.7 196.903C401.292 196.903 402.583 195.613 402.583 194.023C402.583 192.432 401.292 191.142 399.7 191.142C398.108 191.142 396.817 192.432 396.817 194.023C396.817 195.613 398.108 196.903 399.7 196.903Z" stroke="#D86C1D" stroke-linecap="round" stroke-linejoin="round"/>
<path d="M47.9892 337.549C49.5814 337.549 50.8721 336.26 50.8721 334.669C50.8721 333.078 49.5814 331.789 47.9892 331.789C46.3969 331.789 45.1062 333.078 45.1062 334.669C45.1062 336.26 46.3969 337.549 47.9892 337.549Z" stroke="#D86C1D" stroke-linecap="round" stroke-linejoin="round"/>
<path d="M270.367 287.174C271.959 287.174 273.25 285.884 273.25 284.293C273.25 282.702 271.959 281.413 270.367 281.413C268.775 281.413 267.484 282.702 267.484 284.293C267.484 285.884 268.775 287.174 270.367 287.174Z" stroke="#D86C1D" stroke-linecap="round" stroke-linejoin="round"/>
<path d="M393.694 28.8633C395.286 28.8633 396.577 27.5738 396.577 25.983C396.577 24.3922 395.286 23.1027 393.694 23.1027C392.101 23.1027 390.811 24.3922 390.811 25.983C390.811 27.5738 392.101 28.8633 393.694 28.8633Z" fill="#D86C1D"/>
<path d="M300.358 5.76067C301.95 5.76067 303.241 4.47111 303.241 2.88034C303.241 1.28958 301.95 0 300.358 0C298.766 0 297.475 1.28958 297.475 2.88034C297.475 4.47111 298.766 5.76067 300.358 5.76067Z" stroke="#D86C1D" stroke-linecap="round" stroke-linejoin="round"/>
</g>
<defs>
<clipPath id="clip0_3_84">
<rect width="478" height="427.64" fill="white"/>
</clipPath>
</defs>
</svg>
