<svg width="77" height="26" viewBox="0 0 77 26" fill="none" xmlns="http://www.w3.org/2000/svg">
<path d="M0.792 12.304C0.792 10.96 1.056 9.768 1.584 8.728C2.128 7.688 2.856 6.888 3.768 6.328C4.696 5.768 5.728 5.488 6.864 5.488C7.856 5.488 8.72 5.688 9.456 6.088C10.208 6.488 10.808 6.992 11.256 7.6V5.704H14.64V19H11.256V17.056C10.824 17.68 10.224 18.2 9.456 18.616C8.704 19.016 7.832 19.216 6.84 19.216C5.72 19.216 4.696 18.928 3.768 18.352C2.856 17.776 2.128 16.968 1.584 15.928C1.056 14.872 0.792 13.664 0.792 12.304ZM11.256 12.352C11.256 11.536 11.096 10.84 10.776 10.264C10.456 9.672 10.024 9.224 9.48 8.92C8.936 8.6 8.352 8.44 7.728 8.44C7.104 8.44 6.528 8.592 6 8.896C5.472 9.2 5.04 9.648 4.704 10.24C4.384 10.816 4.224 11.504 4.224 12.304C4.224 13.104 4.384 13.808 4.704 14.416C5.04 15.008 5.472 15.464 6 15.784C6.544 16.104 7.12 16.264 7.728 16.264C8.352 16.264 8.936 16.112 9.48 15.808C10.024 15.488 10.456 15.04 10.776 14.464C11.096 13.872 11.256 13.168 11.256 12.352ZM23.1296 5.488C24.1216 5.488 24.9936 5.688 25.7456 6.088C26.4976 6.472 27.0896 6.976 27.5216 7.6V5.704H30.9056V19.096C30.9056 20.328 30.6576 21.424 30.1616 22.384C29.6656 23.36 28.9216 24.128 27.9296 24.688C26.9376 25.264 25.7376 25.552 24.3296 25.552C22.4416 25.552 20.8896 25.112 19.6736 24.232C18.4736 23.352 17.7936 22.152 17.6336 20.632H20.9696C21.1456 21.24 21.5216 21.72 22.0976 22.072C22.6896 22.44 23.4016 22.624 24.2336 22.624C25.2096 22.624 26.0016 22.328 26.6096 21.736C27.2176 21.16 27.5216 20.28 27.5216 19.096V17.032C27.0896 17.656 26.4896 18.176 25.7216 18.592C24.9696 19.008 24.1056 19.216 23.1296 19.216C22.0096 19.216 20.9856 18.928 20.0576 18.352C19.1296 17.776 18.3936 16.968 17.8496 15.928C17.3216 14.872 17.0576 13.664 17.0576 12.304C17.0576 10.96 17.3216 9.768 17.8496 8.728C18.3936 7.688 19.1216 6.888 20.0336 6.328C20.9616 5.768 21.9936 5.488 23.1296 5.488ZM27.5216 12.352C27.5216 11.536 27.3616 10.84 27.0416 10.264C26.7216 9.672 26.2896 9.224 25.7456 8.92C25.2016 8.6 24.6176 8.44 23.9936 8.44C23.3696 8.44 22.7936 8.592 22.2656 8.896C21.7376 9.2 21.3056 9.648 20.9696 10.24C20.6496 10.816 20.4896 11.504 20.4896 12.304C20.4896 13.104 20.6496 13.808 20.9696 14.416C21.3056 15.008 21.7376 15.464 22.2656 15.784C22.8096 16.104 23.3856 16.264 23.9936 16.264C24.6176 16.264 25.2016 16.112 25.7456 15.808C26.2896 15.488 26.7216 15.04 27.0416 14.464C27.3616 13.872 27.5216 13.168 27.5216 12.352ZM35.8913 4.12C35.2993 4.12 34.8033 3.936 34.4033 3.568C34.0193 3.184 33.8273 2.712 33.8273 2.152C33.8273 1.592 34.0193 1.128 34.4033 0.759999C34.8033 0.375999 35.2993 0.183999 35.8913 0.183999C36.4833 0.183999 36.9713 0.375999 37.3553 0.759999C37.7553 1.128 37.9553 1.592 37.9553 2.152C37.9553 2.712 37.7553 3.184 37.3553 3.568C36.9713 3.936 36.4833 4.12 35.8913 4.12ZM37.5473 5.704V19H34.1873V5.704H37.5473ZM44.2269 1.24V19H40.8669V1.24H44.2269ZM49.2506 4.12C48.6586 4.12 48.1626 3.936 47.7626 3.568C47.3786 3.184 47.1866 2.712 47.1866 2.152C47.1866 1.592 47.3786 1.128 47.7626 0.759999C48.1626 0.375999 48.6586 0.183999 49.2506 0.183999C49.8426 0.183999 50.3306 0.375999 50.7146 0.759999C51.1146 1.128 51.3146 1.592 51.3146 2.152C51.3146 2.712 51.1146 3.184 50.7146 3.568C50.3306 3.936 49.8426 4.12 49.2506 4.12ZM50.9066 5.704V19H47.5466V5.704H50.9066ZM58.1383 8.464V14.896C58.1383 15.344 58.2423 15.672 58.4503 15.88C58.6743 16.072 59.0423 16.168 59.5543 16.168H61.1143V19H59.0023C56.1703 19 54.7543 17.624 54.7543 14.872V8.464H53.1703V5.704H54.7543V2.416H58.1383V5.704H61.1143V8.464H58.1383ZM76.251 5.704L68.019 25.288H64.443L67.323 18.664L61.995 5.704H65.763L69.195 14.992L72.675 5.704H76.251Z" fill="#333333"/>
</svg>
