<svg width="72" height="72" viewBox="0 0 72 72" fill="none" xmlns="http://www.w3.org/2000/svg">
<path d="M3.71933 68.501C3.71933 68.501 3.66905 57.3573 7.88827 53.1381C12.1075 48.9188 23.3099 49.2093 23.3099 49.2093C23.3099 49.2093 23.3085 60.1212 19.1186 64.3111C14.9287 68.501 3.71933 68.501 3.71933 68.501Z" fill="#FFAC33"/>
<path d="M9.34199 57.328C9.34199 54.2429 11.8434 51.7415 14.9285 51.7415C18.0137 51.7415 20.515 54.2429 20.515 57.328C20.515 60.4132 18.0137 62.9146 14.9285 62.9146C11.8434 62.9146 9.34199 60.4132 9.34199 57.328Z" fill="#FFCC4D"/>
<path d="M55.6309 35.4209C56.3949 52.2887 55.9685 60.0521 46.394 69.6266C45.0168 71.0038 42.6577 71.3769 41.4011 69.197L35.4336 58.8439L55.6309 35.4209Z" fill="#473BF0"/>
<path d="M36.5784 16.368C19.7108 15.604 11.9475 16.0305 2.37309 25.6049C0.995943 26.982 0.622774 29.3411 2.80272 30.5976L13.1556 36.5651L36.5784 16.368Z" fill="#473BF0"/>
<path d="M13.7322 42.6387L11.9366 44.4342C9.90428 46.4666 9.90427 49.7389 11.9366 51.7712L20.2287 60.0633C22.2611 62.0957 25.5334 62.0957 27.5657 60.0633L29.3613 58.2678L13.7322 42.6387Z" fill="#473BF0"/>
<path d="M55.5813 38.7376L35.3129 60.4734C33.3527 62.5755 30.0082 62.5058 27.9759 60.4734L11.5266 44.0241C9.49422 41.9918 9.4245 38.6473 11.5266 36.6871L33.2624 16.4187C38.8078 11.5152 56.4154 8.20594 60.1047 11.8953C63.7941 15.5847 60.7287 32.8565 55.5813 38.7376Z" fill="#279AF1"/>
<path d="M60.1065 11.897C57.8335 9.62405 50.2744 10.0067 43.5112 11.7827L60.2702 28.5418C62.0795 21.7448 62.4021 14.1926 60.1065 11.897Z" fill="#A8D0FF"/>
<path d="M47.265 35.6488C45.8177 37.096 43.8548 37.9091 41.8081 37.9091C39.7614 37.9091 37.7985 37.096 36.3512 35.6487C34.904 34.2015 34.0909 32.2386 34.0909 30.1919C34.0909 28.1451 34.904 26.1822 36.3512 24.735C37.0678 24.0184 37.9186 23.4499 38.8549 23.0621C39.7912 22.6743 40.7947 22.4746 41.8081 22.4746C42.8216 22.4746 43.8251 22.6743 44.7614 23.0621C45.6977 23.4499 46.5484 24.0184 47.265 24.735C47.9816 25.4516 48.5501 26.3023 48.9379 27.2386C49.3257 28.1749 49.5253 29.1784 49.5253 30.1919C49.5253 31.2053 49.3257 32.2088 48.9379 33.1451C48.5501 34.0814 47.9816 34.9321 47.265 35.6488Z" fill="white"/>
<path d="M32.6827 46.3792C31.7463 47.3156 30.4762 47.8417 29.1518 47.8417C27.8274 47.8417 26.5573 47.3156 25.6209 46.3792C24.6844 45.4427 24.1583 44.1726 24.1583 42.8482C24.1583 41.5239 24.6844 40.2538 25.6209 39.3173C26.5573 38.3808 27.8274 37.8547 29.1518 37.8547C30.4762 37.8547 31.7463 38.3808 32.6827 39.3173C33.6192 40.2538 34.1453 41.5239 34.1453 42.8482C34.1453 44.1726 33.6192 45.4427 32.6827 46.3792Z" fill="#A8D0FF"/>
</svg>
