<svg width="134" height="40" viewBox="0 0 134 40" fill="none" xmlns="http://www.w3.org/2000/svg">
<path d="M44.5711 22.188C44.5711 20.62 44.8791 19.2293 45.4951 18.016C46.1298 16.8027 46.9791 15.8693 48.0431 15.216C49.1258 14.5627 50.3298 14.236 51.6551 14.236C52.8124 14.236 53.8204 14.4693 54.6791 14.936C55.5564 15.4027 56.2564 15.9907 56.7791 16.7V14.488H60.7271V30H56.7791V27.732C56.2751 28.46 55.5751 29.0667 54.6791 29.552C53.8018 30.0187 52.7844 30.252 51.6271 30.252C50.3204 30.252 49.1258 29.916 48.0431 29.244C46.9791 28.572 46.1298 27.6293 45.4951 26.416C44.8791 25.184 44.5711 23.7747 44.5711 22.188ZM56.7791 22.244C56.7791 21.292 56.5924 20.48 56.2191 19.808C55.8458 19.1173 55.3418 18.5947 54.7071 18.24C54.0724 17.8667 53.3911 17.68 52.6631 17.68C51.9351 17.68 51.2631 17.8573 50.6471 18.212C50.0311 18.5667 49.5271 19.0893 49.1351 19.78C48.7618 20.452 48.5751 21.2547 48.5751 22.188C48.5751 23.1213 48.7618 23.9427 49.1351 24.652C49.5271 25.3427 50.0311 25.8747 50.6471 26.248C51.2818 26.6213 51.9538 26.808 52.6631 26.808C53.3911 26.808 54.0724 26.6307 54.7071 26.276C55.3418 25.9027 55.8458 25.38 56.2191 24.708C56.5924 24.0173 56.7791 23.196 56.7791 22.244ZM70.6317 14.236C71.789 14.236 72.8063 14.4693 73.6837 14.936C74.561 15.384 75.2517 15.972 75.7557 16.7V14.488H79.7037V30.112C79.7037 31.5493 79.4143 32.828 78.8357 33.948C78.257 35.0867 77.389 35.9827 76.2317 36.636C75.0743 37.308 73.6743 37.644 72.0317 37.644C69.829 37.644 68.0183 37.1307 66.5997 36.104C65.1997 35.0773 64.4063 33.6773 64.2197 31.904H68.1117C68.317 32.6133 68.7557 33.1733 69.4277 33.584C70.1183 34.0133 70.949 34.228 71.9197 34.228C73.0583 34.228 73.9823 33.8827 74.6917 33.192C75.401 32.52 75.7557 31.4933 75.7557 30.112V27.704C75.2517 28.432 74.5517 29.0387 73.6557 29.524C72.7783 30.0093 71.7703 30.252 70.6317 30.252C69.325 30.252 68.1303 29.916 67.0477 29.244C65.965 28.572 65.1063 27.6293 64.4717 26.416C63.8557 25.184 63.5477 23.7747 63.5477 22.188C63.5477 20.62 63.8557 19.2293 64.4717 18.016C65.1063 16.8027 65.9557 15.8693 67.0197 15.216C68.1023 14.5627 69.3063 14.236 70.6317 14.236ZM75.7557 22.244C75.7557 21.292 75.569 20.48 75.1957 19.808C74.8223 19.1173 74.3183 18.5947 73.6837 18.24C73.049 17.8667 72.3677 17.68 71.6397 17.68C70.9117 17.68 70.2397 17.8573 69.6237 18.212C69.0077 18.5667 68.5037 19.0893 68.1117 19.78C67.7383 20.452 67.5517 21.2547 67.5517 22.188C67.5517 23.1213 67.7383 23.9427 68.1117 24.652C68.5037 25.3427 69.0077 25.8747 69.6237 26.248C70.2583 26.6213 70.9303 26.808 71.6397 26.808C72.3677 26.808 73.049 26.6307 73.6837 26.276C74.3183 25.9027 74.8223 25.38 75.1957 24.708C75.569 24.0173 75.7557 23.196 75.7557 22.244ZM85.5202 12.64C84.8296 12.64 84.2509 12.4253 83.7842 11.996C83.3362 11.548 83.1122 10.9973 83.1122 10.344C83.1122 9.69067 83.3362 9.14933 83.7842 8.72C84.2509 8.272 84.8296 8.048 85.5202 8.048C86.2109 8.048 86.7802 8.272 87.2282 8.72C87.6949 9.14933 87.9282 9.69067 87.9282 10.344C87.9282 10.9973 87.6949 11.548 87.2282 11.996C86.7802 12.4253 86.2109 12.64 85.5202 12.64ZM87.4522 14.488V30H83.5322V14.488H87.4522ZM95.2452 9.28V30H91.3252V9.28H95.2452ZM101.106 12.64C100.415 12.64 99.8368 12.4253 99.3702 11.996C98.9222 11.548 98.6982 10.9973 98.6982 10.344C98.6982 9.69067 98.9222 9.14933 99.3702 8.72C99.8368 8.272 100.415 8.048 101.106 8.048C101.797 8.048 102.366 8.272 102.814 8.72C103.281 9.14933 103.514 9.69067 103.514 10.344C103.514 10.9973 103.281 11.548 102.814 11.996C102.366 12.4253 101.797 12.64 101.106 12.64ZM103.038 14.488V30H99.1182V14.488H103.038ZM111.475 17.708V25.212C111.475 25.7347 111.596 26.1173 111.839 26.36C112.1 26.584 112.53 26.696 113.127 26.696H114.947V30H112.483C109.179 30 107.527 28.3947 107.527 25.184V17.708H105.679V14.488H107.527V10.652H111.475V14.488H114.947V17.708H111.475ZM132.607 14.488L123.003 37.336H118.831L122.191 29.608L115.975 14.488H120.371L124.375 25.324L128.435 14.488H132.607Z" fill="#279AF1"/>
<path d="M1.99647 37.7813C1.99647 37.7813 1.96949 31.6827 4.23421 29.3737C6.49894 27.0647 12.512 27.2237 12.512 27.2237C12.512 27.2237 12.5112 33.1953 10.2622 35.4883C8.01326 37.7813 1.99647 37.7813 1.99647 37.7813Z" fill="#FFAC33"/>
<path d="M5.01453 31.6668C5.01453 29.9784 6.35717 28.6095 8.01317 28.6095C9.66917 28.6095 11.0118 29.9784 11.0118 31.6668C11.0118 33.3552 9.66917 34.7241 8.01317 34.7241C6.35717 34.7241 5.01453 33.3552 5.01453 31.6668Z" fill="#FFCC4D"/>
<path d="M29.8608 19.678C30.2709 28.9091 30.042 33.1577 24.9027 38.3975C24.1635 39.1512 22.8972 39.3554 22.2228 38.1624L19.0196 32.4965L29.8608 19.678Z" fill="#473BF0"/>
<path d="M19.6341 9.25096C10.5802 8.83288 6.41307 9.06625 1.27387 14.306C0.534663 15.0596 0.33436 16.3507 1.50448 17.0383L7.06155 20.3041L19.6341 9.25096Z" fill="#473BF0"/>
<path d="M7.37097 23.6279L6.40718 24.6106C5.31629 25.7228 5.31629 27.5136 6.40718 28.6258L10.8581 33.1638C11.949 34.276 13.7054 34.276 14.7963 33.1638L15.7601 32.1811L7.37097 23.6279Z" fill="#473BF0"/>
<path d="M29.8342 21.493L18.9548 33.3882C17.9027 34.5386 16.1074 34.5004 15.0166 33.3882L6.18713 24.3861C5.09624 23.2739 5.05881 21.4436 6.18713 20.3708L17.8542 9.27866C20.8308 6.59519 30.2819 4.78414 32.2622 6.80319C34.2425 8.82224 32.5971 18.2745 29.8342 21.493Z" fill="#279AF1"/>
<path d="M32.2631 6.80417C31.0431 5.56028 26.9856 5.76972 23.3553 6.74166L32.351 15.9132C33.3221 12.1935 33.4953 8.06051 32.2631 6.80417Z" fill="#A8D0FF"/>
<path d="M25.3702 19.8027C24.5934 20.5947 23.5398 21.0397 22.4412 21.0397C21.3425 21.0397 20.2889 20.5947 19.5121 19.8027C18.7353 19.0107 18.2988 17.9364 18.2988 16.8163C18.2988 15.6962 18.7353 14.622 19.5121 13.83C19.8967 13.4378 20.3534 13.1267 20.856 12.9145C21.3585 12.7022 21.8972 12.593 22.4412 12.593C22.9851 12.593 23.5238 12.7022 24.0264 12.9145C24.5289 13.1267 24.9856 13.4378 25.3702 13.83C25.7549 14.2222 26.06 14.6877 26.2682 15.2001C26.4763 15.7125 26.5835 16.2617 26.5835 16.8163C26.5835 17.371 26.4763 17.9201 26.2682 18.4325C26.06 18.9449 25.7549 19.4105 25.3702 19.8027Z" fill="white"/>
<path d="M17.543 25.675C17.0403 26.1875 16.3586 26.4754 15.6477 26.4754C14.9368 26.4754 14.2551 26.1875 13.7524 25.675C13.2498 25.1625 12.9674 24.4674 12.9674 23.7426C12.9674 23.0179 13.2498 22.3228 13.7524 21.8103C14.2551 21.2978 14.9368 21.0099 15.6477 21.0099C16.3586 21.0099 17.0403 21.2978 17.543 21.8103C18.0456 22.3228 18.328 23.0179 18.328 23.7426C18.328 24.4674 18.0456 25.1625 17.543 25.675Z" fill="#A8D0FF"/>
</svg>
