<svg width="16" height="16" viewBox="0 0 16 16" fill="none" xmlns="http://www.w3.org/2000/svg">
<path d="M12.6667 2.66659H12V1.33325H10.6667V2.66659H5.33333V1.33325H4V2.66659H3.33333C2.59333 2.66659 2 3.26659 2 3.99992V13.3333C2 13.6869 2.14048 14.026 2.39052 14.2761C2.64057 14.5261 2.97971 14.6666 3.33333 14.6666H12.6667C13.0203 14.6666 13.3594 14.5261 13.6095 14.2761C13.8595 14.026 14 13.6869 14 13.3333V3.99992C14 3.6463 13.8595 3.30716 13.6095 3.05711C13.3594 2.80706 13.0203 2.66659 12.6667 2.66659ZM12.6667 13.3333H3.33333V6.66659H12.6667V13.3333ZM12.6667 5.33325H3.33333V3.99992H12.6667V5.33325Z" fill="#636363"/>
</svg>
