<svg width="24" height="21" viewBox="0 0 24 21" fill="none" xmlns="http://www.w3.org/2000/svg">
<path d="M16 10.75C16 10.2196 16.2107 9.71086 16.5858 9.33579C16.9609 8.96071 17.4696 8.75 18 8.75C18.5304 8.75 19.0391 8.96071 19.4142 9.33579C19.7893 9.71086 20 10.2196 20 10.75C20 11.2804 19.7893 11.7891 19.4142 12.1642C19.0391 12.5393 18.5304 12.75 18 12.75C17.4696 12.75 16.9609 12.5393 16.5858 12.1642C16.2107 11.7891 16 11.2804 16 10.75ZM10 10.75C10 10.2196 10.2107 9.71086 10.5858 9.33579C10.9609 8.96071 11.4696 8.75 12 8.75C12.5304 8.75 13.0391 8.96071 13.4142 9.33579C13.7893 9.71086 14 10.2196 14 10.75C14 11.2804 13.7893 11.7891 13.4142 12.1642C13.0391 12.5393 12.5304 12.75 12 12.75C11.4696 12.75 10.9609 12.5393 10.5858 12.1642C10.2107 11.7891 10 11.2804 10 10.75ZM4 10.75C4 10.2196 4.21071 9.71086 4.58579 9.33579C4.96086 8.96071 5.46957 8.75 6 8.75C6.53043 8.75 7.03914 8.96071 7.41421 9.33579C7.78929 9.71086 8 10.2196 8 10.75C8 11.2804 7.78929 11.7891 7.41421 12.1642C7.03914 12.5393 6.53043 12.75 6 12.75C5.46957 12.75 4.96086 12.5393 4.58579 12.1642C4.21071 11.7891 4 11.2804 4 10.75Z" fill="#333333"/>
</svg>
