<svg width="397" height="135" viewBox="0 0 397 135" fill="none" xmlns="http://www.w3.org/2000/svg">
<rect x="240" y="103.621" width="97" height="31.0618" rx="15.5309" fill="#61DAFB"/>
<path d="M262.495 120.188H258.204V124.621H255.969V113.773H263.032V115.583H258.204V118.385H262.495V120.188ZM268.522 118.578C268.229 118.539 267.971 118.519 267.748 118.519C266.933 118.519 266.399 118.794 266.146 119.346V124.621H263.993V116.559H266.027L266.086 117.52C266.518 116.78 267.117 116.41 267.882 116.41C268.12 116.41 268.344 116.443 268.552 116.507L268.522 118.578ZM268.962 120.515C268.962 119.716 269.116 119.003 269.424 118.377C269.732 117.751 270.174 117.267 270.75 116.924C271.331 116.582 272.004 116.41 272.769 116.41C273.857 116.41 274.744 116.743 275.429 117.409C276.119 118.074 276.504 118.978 276.584 120.121L276.599 120.672C276.599 121.909 276.254 122.902 275.563 123.652C274.873 124.397 273.946 124.77 272.784 124.77C271.622 124.77 270.693 124.397 269.998 123.652C269.307 122.907 268.962 121.894 268.962 120.612V120.515ZM271.115 120.672C271.115 121.437 271.259 122.023 271.547 122.43C271.835 122.832 272.248 123.034 272.784 123.034C273.306 123.034 273.713 122.835 274.006 122.438C274.299 122.035 274.446 121.395 274.446 120.515C274.446 119.765 274.299 119.184 274.006 118.772C273.713 118.36 273.301 118.154 272.769 118.154C272.243 118.154 271.835 118.36 271.547 118.772C271.259 119.179 271.115 119.813 271.115 120.672ZM279.907 116.559L279.974 117.491C280.55 116.77 281.322 116.41 282.291 116.41C283.145 116.41 283.781 116.661 284.198 117.163C284.615 117.664 284.829 118.414 284.839 119.413V124.621H282.686V119.465C282.686 119.008 282.586 118.678 282.388 118.474C282.189 118.265 281.859 118.161 281.397 118.161C280.791 118.161 280.336 118.419 280.033 118.936V124.621H277.88V116.559H279.907ZM289.056 114.577V116.559H290.434V118.139H289.056V122.162C289.056 122.46 289.113 122.674 289.227 122.803C289.341 122.932 289.56 122.996 289.883 122.996C290.121 122.996 290.332 122.979 290.516 122.944V124.576C290.094 124.705 289.659 124.77 289.212 124.77C287.702 124.77 286.932 124.007 286.903 122.482V118.139H285.725V116.559H286.903V114.577H289.056ZM295.821 120.843H291.626V119.107H295.821V120.843ZM301.26 124.77C300.077 124.77 299.114 124.407 298.369 123.682C297.629 122.957 297.259 121.991 297.259 120.784V120.575C297.259 119.765 297.415 119.043 297.728 118.407C298.041 117.766 298.483 117.274 299.054 116.932C299.63 116.584 300.286 116.41 301.021 116.41C302.124 116.41 302.991 116.758 303.621 117.453C304.257 118.149 304.575 119.135 304.575 120.411V121.29H299.442C299.511 121.817 299.72 122.239 300.067 122.557C300.42 122.875 300.865 123.034 301.401 123.034C302.231 123.034 302.879 122.733 303.346 122.132L304.404 123.317C304.081 123.774 303.644 124.131 303.092 124.39C302.541 124.643 301.93 124.77 301.26 124.77ZM301.014 118.154C300.587 118.154 300.239 118.298 299.971 118.586C299.707 118.874 299.539 119.286 299.464 119.823H302.459V119.651C302.449 119.174 302.32 118.807 302.072 118.548C301.823 118.285 301.471 118.154 301.014 118.154ZM307.786 116.559L307.853 117.491C308.429 116.77 309.202 116.41 310.17 116.41C311.025 116.41 311.66 116.661 312.078 117.163C312.495 117.664 312.708 118.414 312.718 119.413V124.621H310.565V119.465C310.565 119.008 310.466 118.678 310.267 118.474C310.068 118.265 309.738 118.161 309.276 118.161C308.67 118.161 308.216 118.419 307.913 118.936V124.621H305.76V116.559H307.786ZM314.022 120.53C314.022 119.274 314.303 118.273 314.864 117.528C315.43 116.783 316.203 116.41 317.181 116.41C317.966 116.41 318.614 116.703 319.126 117.289V113.177H321.286V124.621H319.342L319.237 123.764C318.701 124.434 318.011 124.77 317.166 124.77C316.217 124.77 315.455 124.397 314.879 123.652C314.308 122.902 314.022 121.861 314.022 120.53ZM316.175 120.687C316.175 121.442 316.307 122.02 316.57 122.423C316.833 122.825 317.216 123.026 317.717 123.026C318.383 123.026 318.852 122.746 319.126 122.184V119.003C318.857 118.442 318.393 118.161 317.732 118.161C316.694 118.161 316.175 119.003 316.175 120.687Z" fill="#333333"/>
<path d="M123.848 70.9215C123.848 66.0885 124.797 61.8022 126.696 58.0624C128.652 54.3226 131.27 51.4458 134.55 49.4321C137.887 47.4183 141.598 46.4115 145.683 46.4115C149.25 46.4115 152.357 47.1307 155.003 48.5691C157.707 50.0074 159.865 51.8198 161.476 54.0061V47.1882H173.645V95H161.476V88.0095C159.923 90.2533 157.765 92.1232 155.003 93.6192C152.299 95.0575 149.164 95.7767 145.596 95.7767C141.569 95.7767 137.887 94.7411 134.55 92.6698C131.27 90.5986 128.652 87.693 126.696 83.9532C124.797 80.1559 123.848 75.812 123.848 70.9215ZM161.476 71.0941C161.476 68.1598 160.901 65.657 159.75 63.5858C158.599 61.4569 157.046 59.846 155.09 58.7528C153.133 57.6021 151.033 57.0267 148.79 57.0267C146.546 57.0267 144.474 57.5733 142.576 58.6665C140.677 59.7597 139.124 61.3706 137.915 63.4995C136.765 65.5707 136.189 68.0447 136.189 70.9215C136.189 73.7983 136.765 76.3298 137.915 78.5162C139.124 80.645 140.677 82.2847 142.576 83.4354C144.532 84.5861 146.603 85.1615 148.79 85.1615C151.033 85.1615 153.133 84.6149 155.09 83.5217C157.046 82.371 158.599 80.76 159.75 78.6888C160.901 76.56 161.476 74.0284 161.476 71.0941ZM204.173 46.4115C207.74 46.4115 210.876 47.1307 213.58 48.5691C216.284 49.9499 218.413 51.7623 219.966 54.0061V47.1882H232.135V95.3452C232.135 99.7754 231.243 103.717 229.46 107.169C227.676 110.678 225.001 113.44 221.434 115.454C217.866 117.525 213.551 118.561 208.488 118.561C201.699 118.561 196.118 116.978 191.745 113.814C187.43 110.65 184.985 106.334 184.41 100.869H196.406C197.039 103.055 198.391 104.781 200.462 106.047C202.591 107.37 205.151 108.032 208.143 108.032C211.653 108.032 214.501 106.967 216.687 104.839C218.873 102.767 219.966 99.6028 219.966 95.3452V87.9232C218.413 90.167 216.255 92.0369 213.494 93.5329C210.79 95.0288 207.683 95.7767 204.173 95.7767C200.146 95.7767 196.463 94.7411 193.126 92.6698C189.789 90.5986 187.143 87.693 185.186 83.9532C183.288 80.1559 182.338 75.812 182.338 70.9215C182.338 66.0885 183.288 61.8022 185.186 58.0624C187.143 54.3226 189.76 51.4458 193.04 49.4321C196.377 47.4183 200.088 46.4115 204.173 46.4115ZM219.966 71.0941C219.966 68.1598 219.391 65.657 218.24 63.5858C217.09 61.4569 215.536 59.846 213.58 58.7528C211.624 57.6021 209.524 57.0267 207.28 57.0267C205.036 57.0267 202.965 57.5733 201.066 58.6665C199.167 59.7597 197.614 61.3706 196.406 63.4995C195.255 65.5707 194.68 68.0447 194.68 70.9215C194.68 73.7983 195.255 76.3298 196.406 78.5162C197.614 80.645 199.167 82.2847 201.066 83.4354C203.022 84.5861 205.094 85.1615 207.28 85.1615C209.524 85.1615 211.624 84.6149 213.58 83.5217C215.536 82.371 217.09 80.76 218.24 78.6888C219.391 76.56 219.966 74.0284 219.966 71.0941ZM250.063 41.4922C247.934 41.4922 246.151 40.8306 244.712 39.5073C243.332 38.1264 242.641 36.4291 242.641 34.4154C242.641 32.4016 243.332 30.7331 244.712 29.4098C246.151 28.029 247.934 27.3385 250.063 27.3385C252.192 27.3385 253.947 28.029 255.328 29.4098C256.766 30.7331 257.485 32.4016 257.485 34.4154C257.485 36.4291 256.766 38.1264 255.328 39.5073C253.947 40.8306 252.192 41.4922 250.063 41.4922ZM256.018 47.1882V95H243.936V47.1882H256.018ZM280.038 31.1359V95H267.956V31.1359H280.038ZM298.103 41.4922C295.974 41.4922 294.191 40.8306 292.752 39.5073C291.371 38.1264 290.681 36.4291 290.681 34.4154C290.681 32.4016 291.371 30.7331 292.752 29.4098C294.191 28.029 295.974 27.3385 298.103 27.3385C300.232 27.3385 301.987 28.029 303.367 29.4098C304.806 30.7331 305.525 32.4016 305.525 34.4154C305.525 36.4291 304.806 38.1264 303.367 39.5073C301.987 40.8306 300.232 41.4922 298.103 41.4922ZM304.058 47.1882V95H291.975V47.1882H304.058ZM330.063 57.113V80.2422C330.063 81.8532 330.437 83.0327 331.185 83.7806C331.99 84.471 333.313 84.8163 335.155 84.8163H340.764V95H333.17C322.986 95 317.894 90.052 317.894 80.1559V57.113H312.198V47.1882H317.894V35.3647H330.063V47.1882H340.764V57.113H330.063ZM395.195 47.1882L365.593 117.611H352.734L363.09 93.7918L343.931 47.1882H357.481L369.822 80.5874L382.336 47.1882H395.195Z" fill="#279AF1"/>
<path d="M5.73396 114.605C5.73396 114.605 5.65645 97.4255 12.1611 90.9208C18.6657 84.4162 35.936 84.8641 35.936 84.8641C35.936 84.8641 35.9339 101.687 29.4745 108.146C23.015 114.605 5.73396 114.605 5.73396 114.605Z" fill="#FFAC33"/>
<path d="M14.4022 97.3806C14.4022 92.6243 18.2585 88.768 23.0148 88.768C27.7711 88.768 31.6273 92.6243 31.6273 97.3806C31.6273 102.137 27.7711 105.993 23.0148 105.993C18.2585 105.993 14.4022 102.137 14.4022 97.3806Z" fill="#FFCC4D"/>
<path d="M85.7644 63.6073C86.9422 89.6118 86.2847 101.58 71.524 116.341C69.4009 118.464 65.7639 119.04 63.8267 115.679L54.6268 99.7179L85.7644 63.6073Z" fill="#473BF0"/>
<path d="M56.3917 34.2341C30.3875 33.0563 18.4191 33.7137 3.65852 48.4743C1.53541 50.5974 0.960112 54.2343 4.32087 56.1714L20.2816 65.3713L56.3917 34.2341Z" fill="#473BF0"/>
<path d="M21.1705 74.7346L18.4023 77.5027C15.2691 80.6359 15.2691 85.6807 18.4023 88.8139L31.1859 101.598C34.3192 104.731 39.364 104.731 42.4972 101.598L45.2653 98.8294L21.1705 74.7346Z" fill="#473BF0"/>
<path d="M85.6879 68.7205L54.4407 102.23C51.4188 105.471 46.2627 105.363 43.1295 102.23L17.7701 76.8705C14.6369 73.7373 14.5294 68.5812 17.7701 65.5593L51.2795 34.3121C59.8287 26.7526 86.9737 21.6508 92.6614 27.3386C98.3492 33.0263 93.6234 59.6538 85.6879 68.7205Z" fill="#279AF1"/>
<path d="M92.6641 27.3412C89.16 23.8371 77.5064 24.4271 67.0798 27.1651L92.9166 53.0019C95.7058 42.5233 96.2033 30.8804 92.6641 27.3412Z" fill="#A8D0FF"/>
<path d="M72.8669 63.9585C70.6357 66.1897 67.6096 67.4432 64.4542 67.4432C61.2988 67.4432 58.2727 66.1897 56.0415 63.9585C53.8103 61.7273 52.5568 58.7012 52.5568 55.5458C52.5568 52.3904 53.8103 49.3643 56.0415 47.1331C57.1463 46.0283 58.4578 45.152 59.9013 44.5541C61.3447 43.9562 62.8918 43.6484 64.4542 43.6484C66.0166 43.6484 67.5637 43.9562 69.0071 44.5541C70.4506 45.152 71.7621 46.0283 72.8669 47.1331C73.9717 48.2379 74.848 49.5494 75.4459 50.9929C76.0438 52.4363 76.3516 53.9834 76.3516 55.5458C76.3516 57.1082 76.0438 58.6553 75.4459 60.0987C74.848 61.5422 73.9717 62.8537 72.8669 63.9585Z" fill="white"/>
<path d="M50.3859 80.5013C48.9422 81.945 46.9841 82.756 44.9424 82.756C42.9006 82.756 40.9425 81.945 39.4988 80.5013C38.0551 79.0576 37.2441 77.0995 37.2441 75.0577C37.2441 73.016 38.0551 71.0579 39.4988 69.6142C40.9425 68.1705 42.9006 67.3595 44.9424 67.3595C46.9841 67.3595 48.9422 68.1705 50.3859 69.6142C51.8296 71.0579 52.6406 73.016 52.6406 75.0577C52.6406 77.0995 51.8296 79.0575 50.3859 80.5013Z" fill="#A8D0FF"/>
</svg>
