<svg width="89" height="30" viewBox="0 0 89 30" fill="none" xmlns="http://www.w3.org/2000/svg">
<path d="M0.924 14.188C0.924 12.62 1.232 11.2293 1.848 10.016C2.48267 8.80267 3.332 7.86933 4.396 7.216C5.47867 6.56267 6.68267 6.236 8.008 6.236C9.16533 6.236 10.1733 6.46933 11.032 6.936C11.9093 7.40267 12.6093 7.99067 13.132 8.7V6.488H17.08V22H13.132V19.732C12.628 20.46 11.928 21.0667 11.032 21.552C10.1547 22.0187 9.13733 22.252 7.98 22.252C6.67333 22.252 5.47867 21.916 4.396 21.244C3.332 20.572 2.48267 19.6293 1.848 18.416C1.232 17.184 0.924 15.7747 0.924 14.188ZM13.132 14.244C13.132 13.292 12.9453 12.48 12.572 11.808C12.1987 11.1173 11.6947 10.5947 11.06 10.24C10.4253 9.86667 9.744 9.68 9.016 9.68C8.288 9.68 7.616 9.85733 7 10.212C6.384 10.5667 5.88 11.0893 5.488 11.78C5.11467 12.452 4.928 13.2547 4.928 14.188C4.928 15.1213 5.11467 15.9427 5.488 16.652C5.88 17.3427 6.384 17.8747 7 18.248C7.63467 18.6213 8.30667 18.808 9.016 18.808C9.744 18.808 10.4253 18.6307 11.06 18.276C11.6947 17.9027 12.1987 17.38 12.572 16.708C12.9453 16.0173 13.132 15.196 13.132 14.244ZM26.9846 6.236C28.1419 6.236 29.1592 6.46933 30.0366 6.936C30.9139 7.384 31.6046 7.972 32.1086 8.7V6.488H36.0566V22.112C36.0566 23.5493 35.7672 24.828 35.1886 25.948C34.6099 27.0867 33.7419 27.9827 32.5846 28.636C31.4272 29.308 30.0272 29.644 28.3846 29.644C26.1819 29.644 24.3712 29.1307 22.9526 28.104C21.5526 27.0773 20.7592 25.6773 20.5726 23.904H24.4646C24.6699 24.6133 25.1086 25.1733 25.7806 25.584C26.4712 26.0133 27.3019 26.228 28.2726 26.228C29.4112 26.228 30.3352 25.8827 31.0446 25.192C31.7539 24.52 32.1086 23.4933 32.1086 22.112V19.704C31.6046 20.432 30.9046 21.0387 30.0086 21.524C29.1312 22.0093 28.1232 22.252 26.9846 22.252C25.6779 22.252 24.4832 21.916 23.4006 21.244C22.3179 20.572 21.4592 19.6293 20.8246 18.416C20.2086 17.184 19.9006 15.7747 19.9006 14.188C19.9006 12.62 20.2086 11.2293 20.8246 10.016C21.4592 8.80267 22.3086 7.86933 23.3726 7.216C24.4552 6.56267 25.6592 6.236 26.9846 6.236ZM32.1086 14.244C32.1086 13.292 31.9219 12.48 31.5486 11.808C31.1752 11.1173 30.6712 10.5947 30.0366 10.24C29.4019 9.86667 28.7206 9.68 27.9926 9.68C27.2646 9.68 26.5926 9.85733 25.9766 10.212C25.3606 10.5667 24.8566 11.0893 24.4646 11.78C24.0912 12.452 23.9046 13.2547 23.9046 14.188C23.9046 15.1213 24.0912 15.9427 24.4646 16.652C24.8566 17.3427 25.3606 17.8747 25.9766 18.248C26.6112 18.6213 27.2832 18.808 27.9926 18.808C28.7206 18.808 29.4019 18.6307 30.0366 18.276C30.6712 17.9027 31.1752 17.38 31.5486 16.708C31.9219 16.0173 32.1086 15.196 32.1086 14.244ZM41.8731 4.64C41.1825 4.64 40.6038 4.42533 40.1371 3.996C39.6891 3.548 39.4651 2.99733 39.4651 2.344C39.4651 1.69067 39.6891 1.14933 40.1371 0.719999C40.6038 0.271999 41.1825 0.0479989 41.8731 0.0479989C42.5638 0.0479989 43.1331 0.271999 43.5811 0.719999C44.0478 1.14933 44.2811 1.69067 44.2811 2.344C44.2811 2.99733 44.0478 3.548 43.5811 3.996C43.1331 4.42533 42.5638 4.64 41.8731 4.64ZM43.8051 6.488V22H39.8851V6.488H43.8051ZM51.5981 1.28V22H47.6781V1.28H51.5981ZM57.4591 4.64C56.7684 4.64 56.1897 4.42533 55.7231 3.996C55.2751 3.548 55.0511 2.99733 55.0511 2.344C55.0511 1.69067 55.2751 1.14933 55.7231 0.719999C56.1897 0.271999 56.7684 0.0479989 57.4591 0.0479989C58.1497 0.0479989 58.7191 0.271999 59.1671 0.719999C59.6337 1.14933 59.8671 1.69067 59.8671 2.344C59.8671 2.99733 59.6337 3.548 59.1671 3.996C58.7191 4.42533 58.1497 4.64 57.4591 4.64ZM59.3911 6.488V22H55.4711V6.488H59.3911ZM67.828 9.708V17.212C67.828 17.7347 67.9494 18.1173 68.192 18.36C68.4534 18.584 68.8827 18.696 69.48 18.696H71.3V22H68.836C65.532 22 63.88 20.3947 63.88 17.184V9.708H62.032V6.488H63.88V2.652H67.828V6.488H71.3V9.708H67.828ZM88.9595 6.488L79.3555 29.336H75.1835L78.5435 21.608L72.3275 6.488H76.7235L80.7275 17.324L84.7875 6.488H88.9595Z" fill="white"/>
</svg>
